<svg xmlns="http://www.w3.org/2000/svg" width="100" height="100" viewBox="0 0 100 100">
  <g>
    <path d="M18.4443,42.2546l-3.7232-2.1275-.7711,1.35,3.6858,2.1066a1.6775,1.6775,0,1,1-1.6646,2.913l-3.6859-2.1059-.7658,1.34,3.7325,2.1331c1.5262.8726,3.1086.5663,4.1884-1.3233S19.99,43.1377,18.4443,42.2546Z"/>
    <polygon points="17.855 34.644 21.755 36.872 16.211 37.52 15.435 38.878 21.643 42.426 22.398 41.105 18.349 38.791 24.089 38.145 24.818 36.87 18.61 33.322 17.855 34.644"/>
    <rect x="22.0607" y="29.5819" width="1.5218" height="7.1505" transform="translate(-17.2896 36.5205) rotate(-60.2539)"/>
    <polygon points="24.503 25.71 23.34 25.045 20.51 29.997 21.674 30.662 22.71 28.847 27.756 31.729 28.516 30.398 23.471 27.515 24.503 25.71"/>
    <polygon points="29.35 23.041 27.039 18.572 26.177 20.08 27.799 23.032 24.422 23.151 23.56 24.659 28.595 24.363 31.136 25.814 31.891 24.493 29.35 23.041"/>
    <path d="M68.6542,21.0813c2.3152-1.3236-.3808-4.5075.6048-5.0715.3718-.2123.8036-.04,1.128.5273a3.07,3.07,0,0,1,.3521,2.1921l1.3875.1817a3.9739,3.9739,0,0,0-.5176-2.9119c-.8343-1.46-2.2-1.8635-3.233-1.2737-2.3334,1.3344.461,4.4744-.6363,5.1022-.3536.2019-.89.0394-1.3044-.6854a3.1311,3.1311,0,0,1-.2908-2.45L64.7312,16.55a4.0748,4.0748,0,0,0,.5135,3.1857C66.2009,21.41,67.5194,21.73,68.6542,21.0813Z"/>
    <polygon points="69.217 23.731 70.621 22.928 72.339 25.931 73.501 25.267 71.784 22.263 73.095 21.514 74.849 24.582 76.012 23.918 73.502 19.529 67.3 23.075 69.809 27.464 70.971 26.799 69.217 23.731"/>
    <path d="M77.5173,31.1926a2.2257,2.2257,0,0,0,.8077-3.2262l-1.6588-2.9011-6.2018,3.5461.754,1.32,2.2042-1.26.5532.9672-1.5074,2.4784.8663,1.5154,1.5647-2.7452A2.0508,2.0508,0,0,0,77.5173,31.1926ZM76.2588,27.05l.7925,1.3854a.97.97,0,1,1-1.6742.9573l-.7917-1.386Z"/>
    <polygon points="82.457 35.197 76.708 36.213 80.496 31.766 79.634 30.259 74.803 36.204 75.749 37.859 83.318 36.704 82.457 35.197"/>
    <rect x="77.3594" y="38.9694" width="7.1439" height="1.5211" transform="translate(-9.0466 45.4142) rotate(-29.7617)"/>
    <path d="M83.4345,46.7527a1.9152,1.9152,0,0,1-1.7362-.9441,2.3484,2.3484,0,0,1,4.073-2.3287,1.9352,1.9352,0,0,1-.0676,1.9754l1.2067.8162a3.2729,3.2729,0,0,0,.0321-3.4616,3.6966,3.6966,0,1,0-6.4153,3.6687,3.2892,3.2892,0,0,0,3.0078,1.7222Z"/>
    <polygon points="88.783 46.268 82.581 49.814 85.09 54.203 86.252 53.539 84.498 50.47 85.902 49.667 87.619 52.671 88.781 52.007 87.064 49.003 88.375 48.254 90.129 51.322 91.292 50.658 88.783 46.268"/>
    <path d="M26.8251,82.87h1.04l1.3111,2.371h1.6308L29.3066,82.7a1.9155,1.9155,0,0,0,1.4607-1.981,2.0782,2.0782,0,0,0-2.2412-2.1512H25.4042v6.6734h1.4209Zm0-3.0518h1.4907a.9056.9056,0,1,1,0,1.8011H26.8251Z"/>
    <polygon points="36.583 83.99 33.281 83.99 33.281 82.48 36.513 82.48 36.513 81.229 33.281 81.229 33.281 79.818 36.583 79.818 36.583 78.568 31.86 78.568 31.86 85.241 36.583 85.241 36.583 83.99"/>
    <path d="M40.9309,85.3612a3.0742,3.0742,0,0,0,2.7915-1.6407L42.5017,83.13a1.7892,1.7892,0,0,1-1.5708.9709,2.1937,2.1937,0,0,1,0-4.3826,1.8081,1.8081,0,0,1,1.5708.971l1.2207-.6007a3.0544,3.0544,0,0,0-2.7915-1.6308,3.4533,3.4533,0,1,0,0,6.9037Z"/>
    <path d="M47.61,85.3612A3.452,3.452,0,1,0,44.128,81.91,3.3532,3.3532,0,0,0,47.61,85.3612Zm0-5.6432A2.1985,2.1985,0,1,1,45.589,81.91,2.0262,2.0262,0,0,1,47.61,79.718Z"/>
    <polygon points="55.463 85.241 58.035 78.568 56.414 78.568 54.573 83.7 52.722 78.568 51.101 78.568 53.683 85.241 55.463 85.241"/>
    <polygon points="63.394 83.99 60.092 83.99 60.092 82.48 63.324 82.48 63.324 81.229 60.092 81.229 60.092 79.818 63.394 79.818 63.394 78.568 58.671 78.568 58.671 85.241 63.394 85.241 63.394 83.99"/>
    <path d="M66.0442,82.87h1.0407l1.3108,2.371h1.6308L68.5254,82.7a1.9154,1.9154,0,0,0,1.461-1.981,2.0782,2.0782,0,0,0-2.2412-2.1512H64.6233v6.6734h1.4209Zm0-3.0518h1.4907a.9056.9056,0,1,1,0,1.8011H66.0442Z"/>
    <polygon points="72.653 85.241 74.074 85.241 74.074 82.51 76.625 78.568 75.005 78.568 73.364 81.249 71.703 78.568 70.082 78.568 72.653 82.51 72.653 85.241"/>
    <g>
      <path d="M75.1644,55.406a2.0323,2.0323,0,1,0-4.0522,0v7.8189h4.0522Z"/>
      <g>
        <path d="M65.9836,55.406a2.0323,2.0323,0,1,0-4.0521,0v7.8189h4.0521Z"/>
        <path d="M50,0a50,50,0,1,0,50,50A50,50,0,0,0,50,0Zm-.16,31.121a2.8388,2.8388,0,0,1,1.0715.4024.9663.9663,0,0,0,1.2233-.2567,4.64,4.64,0,0,1,2.1236-1.3512,2.6972,2.6972,0,0,1,2.1175.0765c.0678.0371.1147.0407.162.0029a1.5594,1.5594,0,0,1,1.123-.1878,1.934,1.934,0,0,0,1.1164-.5106,2.7146,2.7146,0,0,1,3.515.3587.9209.9209,0,0,0,.2543.2027c.6518.3171.6368.9361.59,1.4954A20.7058,20.7058,0,0,0,63.2382,35a2.7231,2.7231,0,0,0,.486,1.2013c.219.3443.1543.86.6372,1.0519.1008.04.1125.2191.0981.3462-.0626.5479.2693,1.0035.3538,1.5214a1.3183,1.3183,0,0,0,.573.7176c.3142.2407.7078.3892.8377.83.0363.1234.2152.0961.3284.14a.5627.5627,0,0,1,.174,1.0156,1.9207,1.9207,0,0,0-.4995.9084,4.0208,4.0208,0,0,1-1.4262,2.5489,12.6928,12.6928,0,0,0-1.7229,1.9411,21.5308,21.5308,0,0,1-2.5279,2.57,1.6242,1.6242,0,0,0-.4143.5519,8.8471,8.8471,0,0,1-1.4465,1.57,4.3294,4.3294,0,0,0-.7077.9207,3.9576,3.9576,0,0,1-1.2186,1.3216.1833.1833,0,0,0-.0383.0265c-.552.6718-1.3187,1.1242-1.8881,1.742-.6121.6639-1.2159,1.3479-1.8325,2.0146a.761.761,0,0,1-.33.2491c-.9739.2191-1.4375.9981-1.9524,1.74a12.8241,12.8241,0,0,1-1.56,1.7625c-.0525.0519-.1286.1281-.1837.12-.3617-.05-.4986-.3467-.6065-.6387-.0874-.2363-.137-.52.1308-.6715a1.19,1.19,0,0,1,.63-.2633.8159.8159,0,0,0,.756-.3518c.2678-.3528.5861-.6666.8565-1.0176a.9508.9508,0,0,0-.1892-1.1575c-.8385-.5515-.9486-.591-1.8089-.0061-.8517.5792-.7893.4234-.8,1.4747.1685.8408-.5013,1.2875-1.0523,1.768-.2159.1883-.4525.3572-.6691.5552a4.066,4.066,0,0,1-1.0673.705c-.4895.2245-.8855.6547-1.389.9049a12.9774,12.9774,0,0,1-2.3843.9977c-.6847.1855-1.3062.5169-2.0444.6454-.6274.1093-1.1358.8324-1.4282,1.51a3.0538,3.0538,0,0,1-.9259,1.1226.2989.2989,0,0,1-.4544-.0269c-.21-.2243-.39-.4648-.76-.4548a3.0832,3.0832,0,0,0-1.8681.4126,2.96,2.96,0,0,0-.7708.8025A3.3777,3.3777,0,0,1,29.53,69.7641c-.605-.0866-.9646.4327-1.4286.6877a2.4063,2.4063,0,0,0-.4454.404,1.945,1.945,0,0,1-2.164.3138c-.055-.0276-.1363-.0362-.1641-.08a5.5508,5.5508,0,0,1-1.2644-2.45.5437.5437,0,0,1,.0068-.2333c.273-.6882.5549-1.3723.8154-2.0664.23-.6116.9231-.7368,1.3941-1.0994.5269-.4056.5771-.5776.35-1.1858a1.6726,1.6726,0,0,1,.141-1.6408,1.3669,1.3669,0,0,0,.1077-1.3754,16.1072,16.1072,0,0,1-.8375-2.2238c-.2294-1.0125-.3177-1.0393.6056-1.6206a20.5765,20.5765,0,0,0,2.6056-2.15,1.7282,1.7282,0,0,1,1.8358-.2048,1.2529,1.2529,0,0,1,.3447.1352c.5094.3554.8724.0282,1.217-.2767a5.0375,5.0375,0,0,0,.7626-1,.5426.5426,0,0,0-.0407-.6519.8467.8467,0,0,1-.0106-.8564,10.67,10.67,0,0,1,.61-1.6,1.3435,1.3435,0,0,0,.2211-1.1364c-.0664-.2241.0981-.44.1956-.6a1.8382,1.8382,0,0,0,.2444-1.1688,7.12,7.12,0,0,1,.2809-2.1681,1.9931,1.9931,0,0,1,.512-.8567,9.5855,9.5855,0,0,0,.8125-1.1872,1.304,1.304,0,0,0-.4265-1.7409,1.3831,1.3831,0,0,1-.7472-1.3446c.04-.4354.0069-.8771.025-1.3152.02-.48.2392-.602.6378-.3615a.9373.9373,0,0,0,.5851.1.2672.2672,0,0,0,.2793-.2582.3482.3482,0,0,0-.1407-.3709,1.2186,1.2186,0,0,0-.1293-.0509c-.9688-.4423-1.1418-.7761-1.0015-1.8422a8.2183,8.2183,0,0,0,.0562-1.0771,3.9263,3.9263,0,0,1,1.0687-2.6418c.1615-.1857.2985-.3933.4441-.5927a12.9827,12.9827,0,0,1,2.0125-1.86.8778.8778,0,0,1,1.1125-.0258c.2022.1308.38.2163.5945.08a.4668.4668,0,0,1,.7261.24.9542.9542,0,0,0,1.1434.4693.8747.8747,0,0,1,1.0523.45c.0592.117.2034.2835.2954.2754.7737-.0686,1.419.6294,2.2351.3376a15.183,15.183,0,0,0,2.6837-.7949A1.4972,1.4972,0,0,1,49.84,31.121ZM61.9315,64.6859v6.74h-1.461V64.7012H59.0019V63.2249h1.4686V55.406a3.4872,3.4872,0,0,1,6.974,0v16.02H65.9836v-6.74ZM3.5714,50A46.4815,46.4815,0,0,1,47.9291,3.6239L8.9987,71.7524A46.1337,46.1337,0,0,1,3.5714,50ZM50,96.4285A46.4208,46.4208,0,0,1,10.908,75H89.092A46.4208,46.4208,0,0,1,50,96.4285ZM71.1122,64.6859v6.74H69.6513V64.7012H68.1827V63.2249h1.4686V55.406a3.4872,3.4872,0,0,1,6.974,0v16.02H75.1644v-6.74ZM52.0709,3.6239a46.3977,46.3977,0,0,1,38.93,68.1285Z"/>
      </g>
    </g>
  </g>
</svg>
