<svg xmlns="http://www.w3.org/2000/svg" width="50" height="65" viewBox="0 0 50 65">
  <g>
    <path d="M30.2551.0741,6.31,6.6639A2.3247,2.3247,0,0,0,5,8.9163V60H32.5V1.979A1.7612,1.7612,0,0,0,30.2551.0741ZM25.0243,33.255a3.3179,3.3179,0,0,1-2.9017-3.5268,3.3179,3.3179,0,0,1,2.9017-3.5268A3.2672,3.2672,0,0,1,28.1,29.7282,3.2673,3.2673,0,0,1,25.0243,33.255Z" fill="#231f20"/>
    <polygon points="45 60 45 12.5 45 7.5 40 7.5 35 7.5 35 12.5 40 12.5 40 60 0 60 0 65 50 65 50 60 45 60" fill="#231f20" opacity="0.48"/>
  </g>
</svg>
