<svg xmlns="http://www.w3.org/2000/svg" width="100" height="150" viewBox="0 0 100 150">
  <path d="M100,50A50,50,0,1,0,6.7109,75.009l-.01-.0045L50,150,93.2986,75.0045l-.0095.0045A49.7509,49.7509,0,0,0,100,50Z" fill="#04a996"/>
  <g>
    <path d="M55.2551,20.0741,31.31,26.6639A2.3246,2.3246,0,0,0,30,28.9163V80H57.5V21.979A1.7612,1.7612,0,0,0,55.2551,20.0741ZM50.0243,53.2549a3.5941,3.5941,0,0,1,0-7.0535A3.2671,3.2671,0,0,1,53.1,49.7281,3.2672,3.2672,0,0,1,50.0243,53.2549Z" fill="#0f223c"/>
    <polygon points="70 80 70 32.5 70 27.5 65 27.5 60 27.5 60 32.5 65 32.5 65 80 25 80 25 85 75 85 75 80 70 80" fill="#0f223c" opacity="0.48"/>
  </g>
</svg>
