<svg xmlns="http://www.w3.org/2000/svg" width="240" height="60" viewBox="0 0 240 60">
  <g>
    <g>
      <path d="M32.9367.001a30.0745,30.0745,0,0,1,24.27,42.5734Z" fill="#975c99"/>
      <path d="M5.6567,47.4663h48.69a29.9147,29.9147,0,0,1-48.69,0Z" fill="#e07a5f"/>
      <polygon points="29.997 4.943 51.387 42.454 8.617 42.454 29.997 4.943" fill="#1f4fae"/>
      <path d="M-.0033,29.9237A30.0855,30.0855,0,0,1,27.0567.001L2.7867,42.5744A30.0562,30.0562,0,0,1-.0033,29.9237Z" fill="#00a896"/>
    </g>
    <g>
      <g>
        <path d="M69.2014,27.1736a9.3473,9.3473,0,0,0,7.1517,3.3349c4.71,0,6.0518-2.6129,6.0518-4.5733,0-3.2317-3.0947-4.1267-6.2928-4.9856-3.61-.9966-7.4615-2.0293-7.4615-6.2575,0-3.748,3.37-6.1207,7.53-6.1207a9.8969,9.8969,0,0,1,7.77,3.2325L82.6451,13.248A8.2114,8.2114,0,0,0,76.0777,10.36c-3.0595,0-5.3633,1.7531-5.3633,4.2282,0,2.7169,2.8529,3.5078,5.9829,4.3676,3.6792,1.031,7.77,2.2,7.77,6.8763,0,2.9235-1.96,6.4649-8.1491,6.4649a10.5471,10.5471,0,0,1-8.39-3.6455Z" fill="#1f4fae"/>
        <path d="M88.3107,28.6865V16.8918H85.56V15.2765h2.7506V10.7376h1.8227v4.5389h3.3693v1.6153H90.1334V28.4111c0,1.3409.55,2.2686,1.72,2.2686a2.5908,2.5908,0,0,0,1.8564-.7909l.6885,1.3761a3.7339,3.7339,0,0,1-2.8194,1.0319C89.377,32.2968,88.3107,30.9551,88.3107,28.6865Z" fill="#1f4fae"/>
        <path d="M107.2453,29.9241a7.2364,7.2364,0,0,1-5.64,2.3727,5.5614,5.5614,0,0,1-5.8108-5.5363c0-3.61,2.9226-5.4675,5.8108-5.4675a7.2062,7.2062,0,0,1,5.64,2.3383V20.262c0-2.4416-1.9949-3.8168-4.47-3.8168a6.4593,6.4593,0,0,0-5.1921,2.4415l-.9974-1.2039a7.9652,7.9652,0,0,1,6.3608-2.8194c3.4037,0,6.0862,1.6162,6.0862,5.33V31.8837h-1.7875Zm0-4.952a6.2375,6.2375,0,0,0-5.0208-2.3038c-2.7505,0-4.5389,1.7883-4.5389,4.1266s1.7884,4.0914,4.5389,4.0914a6.2084,6.2084,0,0,0,5.0208-2.2686Z" fill="#1f4fae"/>
        <path d="M114.0309,28.6865V16.8918H111.28V15.2765h2.7505V10.7376h1.8228v4.5389h3.3693v1.6153h-3.3693V28.4111c0,1.3409.55,2.2686,1.7195,2.2686a2.591,2.591,0,0,0,1.8564-.7909l.6884,1.3761a3.7336,3.7336,0,0,1-2.8193,1.0319C115.0972,32.2968,114.0309,30.9551,114.0309,28.6865Z" fill="#1f4fae"/>
        <path d="M128.6181,14.8634c5.0544,0,7.84,4.0233,7.84,8.8023v.482H122.5671c.1722,3.61,2.5784,6.6009,6.4641,6.6009a7.3744,7.3744,0,0,0,5.4675-2.3039l.9286,1.17a8.5669,8.5669,0,0,1-6.4994,2.6825c-4.8478,0-8.3212-3.61-8.3212-8.7335C120.6067,18.749,124.0112,14.8634,128.6181,14.8634Zm-6.051,7.8737h12.0693c-.0353-2.8193-1.8916-6.3263-6.0519-6.3263C124.6645,16.4108,122.704,19.8489,122.5671,22.7371Z" fill="#1f4fae"/>
        <path d="M151.1051,20.6751c0-3.2325-1.6162-4.1955-4.0225-4.1955a7.217,7.217,0,0,0-5.3986,2.8538v12.55h-1.7884V15.2765h1.7884v2.51a8.4169,8.4169,0,0,1,5.9829-2.9226c3.3693,0,5.2257,1.6506,5.2257,5.3986V31.8837h-1.7875Z" fill="#1f4fae"/>
        <path d="M163.7143,8.9493h1.96V31.8837h-1.96Z" fill="#1f4fae"/>
        <path d="M170.1414,28.3423a6.8647,6.8647,0,0,0,5.3642,2.4415c2.785,0,4.4356-1.3752,4.4356-3.3013,0-2.1317-2.2694-2.7505-4.6765-3.37-2.7506-.6868-5.8109-1.4088-5.8109-4.6413,0-2.544,2.1317-4.6077,5.9141-4.6077a7.5344,7.5344,0,0,1,5.9486,2.476l-.9975,1.2375a6.0493,6.0493,0,0,0-4.9511-2.2006c-2.5784,0-4.16,1.2729-4.16,2.9915,0,1.8916,2.1318,2.4072,4.4356,2.9915,2.8538.7221,6.051,1.513,6.051,5.0544,0,2.6817-2.0973,4.8831-6.2231,4.8831a8.0424,8.0424,0,0,1-6.3952-2.6137Z" fill="#1f4fae"/>
        <path d="M185.27,8.9493h1.7883V31.8837H185.27Z" fill="#1f4fae"/>
        <path d="M201.8715,29.9241a7.235,7.235,0,0,1-5.6395,2.3727,5.5615,5.5615,0,0,1-5.8109-5.5363c0-3.61,2.9226-5.4675,5.8109-5.4675a7.2049,7.2049,0,0,1,5.6395,2.3383V20.262c0-2.4415-1.994-3.8168-4.47-3.8168a6.46,6.46,0,0,0-5.1921,2.4415l-.9974-1.2039a7.9657,7.9657,0,0,1,6.3616-2.8194c3.4038,0,6.0855,1.6162,6.0855,5.33V31.8837h-1.7876Zm0-4.952a6.2368,6.2368,0,0,0-5.02-2.3038c-2.7514,0-4.5389,1.7883-4.5389,4.1266s1.7875,4.0914,4.5389,4.0914a6.2077,6.2077,0,0,0,5.02-2.2686Z" fill="#1f4fae"/>
        <path d="M219.2722,20.6751c0-3.2325-1.6162-4.1955-4.0233-4.1955a7.2153,7.2153,0,0,0-5.3978,2.8538v12.55h-1.7883V15.2765h1.7883v2.51a8.4172,8.4172,0,0,1,5.983-2.9226c3.3693,0,5.2256,1.6506,5.2256,5.3986V31.8837h-1.7875Z" fill="#1f4fae"/>
        <path d="M237.76,29.2356a7.0765,7.0765,0,0,1-5.7773,3.0612c-4.4011,0-7.4262-3.37-7.4262-8.7,0-5.2609,3.0251-8.7335,7.4262-8.7335a7.1,7.1,0,0,1,5.7773,3.0947V8.9493h1.8219V31.8837H237.76Zm0-9.73a6.6338,6.6338,0,0,0-5.4675-3.0259c-3.6791,0-5.8108,3.0948-5.8108,7.1173s2.1317,7.0828,5.8108,7.0828a6.6626,6.6626,0,0,0,5.4675-2.957Z" fill="#1f4fae"/>
      </g>
      <g>
        <path d="M68.19,45.4955a5.799,5.799,0,0,1,6.0871-5.9146A5.3476,5.3476,0,0,1,79.01,42.1356L76.9863,43.233a3.2393,3.2393,0,0,0-2.71-1.4925,3.76,3.76,0,0,0,0,7.5109,3.858,3.858,0,0,0,2.435-.8747V47.0056H73.6942V44.88h5.4526V49.269a6.35,6.35,0,0,1-4.87,2.16A5.8237,5.8237,0,0,1,68.19,45.4955Z" fill="#1f4fae"/>
        <path d="M81.9526,51.2059V39.7693h8.0926v2.1436H84.3876V44.33h5.5379v2.1428H84.3876v2.59h5.6576v2.1428Z" fill="#1f4fae"/>
        <path d="M100.7679,51.2059l-5.4526-7.4581v7.4581H92.8811V39.7693h2.5028l5.2986,7.1844V39.7693h2.4341V51.2059Z" fill="#1f4fae"/>
        <path d="M106.2087,51.2059V39.7693h8.0935v2.1436h-5.6585V44.33h5.5388v2.1428h-5.5388v2.59h5.6585v2.1428Z" fill="#1f4fae"/>
        <path d="M123.601,51.2059l-2.2458-4.0639h-1.7829v4.0639h-2.435V39.7693h5.35a3.5619,3.5619,0,0,1,3.8412,3.6863,3.2826,3.2826,0,0,1-2.5036,3.3951l2.5723,4.3552Zm.2411-7.75a1.5532,1.5532,0,0,0-1.7151-1.5427h-2.5547v3.0854h2.5547A1.5532,1.5532,0,0,0,123.8421,43.4556Z" fill="#1f4fae"/>
        <path d="M137.0759,51.2059l-.7031-1.9369h-4.9035l-.72,1.9369h-2.7781l4.4238-11.4366h3.0519l4.4071,11.4366Zm-3.1549-9.0017-1.7829,4.92h3.5667Z" fill="#1f4fae"/>
        <path d="M141.673,51.2059V39.7693h2.435v9.2938h4.8356v2.1428Z" fill="#1f4fae"/>
        <path d="M155.7648,49.5938l1.32-1.8516a5.014,5.014,0,0,0,3.6353,1.5435c1.3377,0,1.99-.6177,1.99-1.269,0-2.0231-6.5842-.6344-6.5842-4.9386,0-1.9034,1.6456-3.48,4.3376-3.48a6.3646,6.3646,0,0,1,4.4581,1.5945L163.567,42.976a4.9154,4.9154,0,0,0-3.3265-1.2522c-1.0463,0-1.6289.4629-1.6289,1.1484,0,1.8181,6.5667.601,6.5667,4.87,0,2.0918-1.4916,3.67-4.5779,3.67A6.5184,6.5184,0,0,1,155.7648,49.5938Z" fill="#1f4fae"/>
        <path d="M167.6208,51.2059V39.7693h8.0935v2.1436h-5.6585V44.33h5.538v2.1428h-5.538v2.59h5.6585v2.1428Z" fill="#1f4fae"/>
        <path d="M185.014,51.2059l-2.2467-4.0639h-1.7829v4.0639h-2.435V39.7693h5.35a3.5619,3.5619,0,0,1,3.8412,3.6863,3.2826,3.2826,0,0,1-2.5036,3.3951l2.5723,4.3552Zm.2393-7.75a1.552,1.552,0,0,0-1.7142-1.5427h-2.5547v3.0854h2.5547A1.552,1.552,0,0,0,185.2533,43.4556Z" fill="#1f4fae"/>
        <path d="M193.26,51.2059l-4.4239-11.4366h2.7774l3.1724,8.7965,3.1549-8.7965h2.7773l-4.4062,11.4366Z" fill="#1f4fae"/>
        <path d="M202.5385,51.2059V39.7693h2.435V51.2059Z" fill="#1f4fae"/>
        <path d="M207.4453,45.4955a5.8114,5.8114,0,0,1,6.0871-5.9146,5.2358,5.2358,0,0,1,4.7846,2.7941l-2.0927,1.03a3.0992,3.0992,0,0,0-2.6919-1.6641,3.76,3.76,0,0,0,0,7.5109,3.0664,3.0664,0,0,0,2.6919-1.6632l2.0927,1.0111a5.269,5.269,0,0,1-4.7846,2.8125A5.8118,5.8118,0,0,1,207.4453,45.4955Z" fill="#1f4fae"/>
        <path d="M220.5109,51.2059V39.7693h8.0935v2.1436h-5.6585V44.33h5.5379v2.1428h-5.5379v2.59h5.6585v2.1428Z" fill="#1f4fae"/>
        <path d="M230.5865,49.5938l1.32-1.8516a5.0155,5.0155,0,0,0,3.6354,1.5435c1.3376,0,1.9888-.6177,1.9888-1.269,0-2.0231-6.5843-.6344-6.5843-4.9386,0-1.9034,1.6465-3.48,4.3385-3.48a6.3646,6.3646,0,0,1,4.4581,1.5945l-1.3543,1.7838a4.9154,4.9154,0,0,0-3.3265-1.2522c-1.0463,0-1.6289.4629-1.6289,1.1484,0,1.8181,6.5667.601,6.5667,4.87,0,2.0918-1.4916,3.67-4.5778,3.67A6.5187,6.5187,0,0,1,230.5865,49.5938Z" fill="#1f4fae"/>
      </g>
    </g>
  </g>
</svg>
